<?xml version="1.0" encoding="us-ascii" standalone="no"?><svg xmlns="http://www.w3.org/2000/svg" xmlns:xlink="http://www.w3.org/1999/xlink" contentStyleType="text/css" height="540px" preserveAspectRatio="none" style="width:714px;height:540px;background:#FFFFFF;" version="1.1" viewBox="0 0 714 540" width="714px" zoomAndPan="magnify"><defs/><g><!--class Capitulo1--><g id="elem_Capitulo1"><rect codeLine="1" fill="#F1F1F1" height="48" id="Capitulo1" rx="2.5" ry="2.5" style="stroke:#181818;stroke-width:0.5;" width="96" x="25" y="7"/><ellipse cx="40" cy="23" fill="#ADD1B2" rx="11" ry="11" style="stroke:#181818;stroke-width:1.0;"/><path d="M42.9688,28.6406 Q42.3906,28.9375 41.75,29.0781 Q41.1094,29.2344 40.4063,29.2344 Q37.9063,29.2344 36.5781,27.5938 Q35.2656,25.9375 35.2656,22.8125 Q35.2656,19.6875 36.5781,18.0313 Q37.9063,16.375 40.4063,16.375 Q41.1094,16.375 41.75,16.5313 Q42.4063,16.6875 42.9688,16.9844 L42.9688,19.7031 Q42.3438,19.125 41.75,18.8594 Q41.1563,18.5781 40.5313,18.5781 Q39.1875,18.5781 38.5,19.6563 Q37.8125,20.7188 37.8125,22.8125 Q37.8125,24.9063 38.5,25.9844 Q39.1875,27.0469 40.5313,27.0469 Q41.1563,27.0469 41.75,26.7813 Q42.3438,26.5 42.9688,25.9219 L42.9688,28.6406 Z " fill="#000000"/><text fill="#000000" font-family="sans-serif" font-size="14" lengthAdjust="spacing" textLength="64" x="54" y="28.432">Capitulo1</text><line style="stroke:#181818;stroke-width:0.5;" x1="26" x2="120" y1="39" y2="39"/><line style="stroke:#181818;stroke-width:0.5;" x1="26" x2="120" y1="47" y2="47"/></g><!--class Escena1--><g id="elem_Escena1"><rect codeLine="2" fill="#F1F1F1" height="48" id="Escena1" rx="2.5" ry="2.5" style="stroke:#181818;stroke-width:0.5;" width="87" x="29.5" y="116"/><ellipse cx="44.5" cy="132" fill="#ADD1B2" rx="11" ry="11" style="stroke:#181818;stroke-width:1.0;"/><path d="M47.4688,137.6406 Q46.8906,137.9375 46.25,138.0781 Q45.6094,138.2344 44.9063,138.2344 Q42.4063,138.2344 41.0781,136.5938 Q39.7656,134.9375 39.7656,131.8125 Q39.7656,128.6875 41.0781,127.0313 Q42.4063,125.375 44.9063,125.375 Q45.6094,125.375 46.25,125.5313 Q46.9063,125.6875 47.4688,125.9844 L47.4688,128.7031 Q46.8438,128.125 46.25,127.8594 Q45.6563,127.5781 45.0313,127.5781 Q43.6875,127.5781 43,128.6563 Q42.3125,129.7188 42.3125,131.8125 Q42.3125,133.9063 43,134.9844 Q43.6875,136.0469 45.0313,136.0469 Q45.6563,136.0469 46.25,135.7813 Q46.8438,135.5 47.4688,134.9219 L47.4688,137.6406 Z " fill="#000000"/><text fill="#000000" font-family="sans-serif" font-size="14" lengthAdjust="spacing" textLength="55" x="58.5" y="137.432">Escena1</text><line style="stroke:#181818;stroke-width:0.5;" x1="30.5" x2="115.5" y1="148" y2="148"/><line style="stroke:#181818;stroke-width:0.5;" x1="30.5" x2="115.5" y1="156" y2="156"/></g><!--class Escena2--><g id="elem_Escena2"><rect codeLine="3" fill="#F1F1F1" height="48" id="Escena2" rx="2.5" ry="2.5" style="stroke:#181818;stroke-width:0.5;" width="87" x="235.5" y="485"/><ellipse cx="250.5" cy="501" fill="#ADD1B2" rx="11" ry="11" style="stroke:#181818;stroke-width:1.0;"/><path d="M253.4688,506.6406 Q252.8906,506.9375 252.25,507.0781 Q251.6094,507.2344 250.9063,507.2344 Q248.4063,507.2344 247.0781,505.5938 Q245.7656,503.9375 245.7656,500.8125 Q245.7656,497.6875 247.0781,496.0313 Q248.4063,494.375 250.9063,494.375 Q251.6094,494.375 252.25,494.5313 Q252.9063,494.6875 253.4688,494.9844 L253.4688,497.7031 Q252.8438,497.125 252.25,496.8594 Q251.6563,496.5781 251.0313,496.5781 Q249.6875,496.5781 249,497.6563 Q248.3125,498.7188 248.3125,500.8125 Q248.3125,502.9063 249,503.9844 Q249.6875,505.0469 251.0313,505.0469 Q251.6563,505.0469 252.25,504.7813 Q252.8438,504.5 253.4688,503.9219 L253.4688,506.6406 Z " fill="#000000"/><text fill="#000000" font-family="sans-serif" font-size="14" lengthAdjust="spacing" textLength="55" x="264.5" y="506.432">Escena2</text><line style="stroke:#181818;stroke-width:0.5;" x1="236.5" x2="321.5" y1="517" y2="517"/><line style="stroke:#181818;stroke-width:0.5;" x1="236.5" x2="321.5" y1="525" y2="525"/></g><!--class Escena3--><g id="elem_Escena3"><rect codeLine="4" fill="#F1F1F1" height="48" id="Escena3" rx="2.5" ry="2.5" style="stroke:#181818;stroke-width:0.5;" width="87" x="372.5" y="485"/><ellipse cx="387.5" cy="501" fill="#ADD1B2" rx="11" ry="11" style="stroke:#181818;stroke-width:1.0;"/><path d="M390.4688,506.6406 Q389.8906,506.9375 389.25,507.0781 Q388.6094,507.2344 387.9063,507.2344 Q385.4063,507.2344 384.0781,505.5938 Q382.7656,503.9375 382.7656,500.8125 Q382.7656,497.6875 384.0781,496.0313 Q385.4063,494.375 387.9063,494.375 Q388.6094,494.375 389.25,494.5313 Q389.9063,494.6875 390.4688,494.9844 L390.4688,497.7031 Q389.8438,497.125 389.25,496.8594 Q388.6563,496.5781 388.0313,496.5781 Q386.6875,496.5781 386,497.6563 Q385.3125,498.7188 385.3125,500.8125 Q385.3125,502.9063 386,503.9844 Q386.6875,505.0469 388.0313,505.0469 Q388.6563,505.0469 389.25,504.7813 Q389.8438,504.5 390.4688,503.9219 L390.4688,506.6406 Z " fill="#000000"/><text fill="#000000" font-family="sans-serif" font-size="14" lengthAdjust="spacing" textLength="55" x="401.5" y="506.432">Escena3</text><line style="stroke:#181818;stroke-width:0.5;" x1="373.5" x2="458.5" y1="517" y2="517"/><line style="stroke:#181818;stroke-width:0.5;" x1="373.5" x2="458.5" y1="525" y2="525"/></g><!--class Dialogo1--><g id="elem_Dialogo1"><rect codeLine="5" fill="#F1F1F1" height="143.3396" id="Dialogo1" rx="2.5" ry="2.5" style="stroke:#181818;stroke-width:0.5;" width="132" x="7" y="244"/><ellipse cx="40.45" cy="260" fill="#ADD1B2" rx="11" ry="11" style="stroke:#181818;stroke-width:1.0;"/><path d="M43.4188,265.6406 Q42.8406,265.9375 42.2,266.0781 Q41.5594,266.2344 40.8563,266.2344 Q38.3563,266.2344 37.0281,264.5938 Q35.7156,262.9375 35.7156,259.8125 Q35.7156,256.6875 37.0281,255.0313 Q38.3563,253.375 40.8563,253.375 Q41.5594,253.375 42.2,253.5313 Q42.8563,253.6875 43.4188,253.9844 L43.4188,256.7031 Q42.7938,256.125 42.2,255.8594 Q41.6063,255.5781 40.9813,255.5781 Q39.6375,255.5781 38.95,256.6563 Q38.2625,257.7188 38.2625,259.8125 Q38.2625,261.9063 38.95,262.9844 Q39.6375,264.0469 40.9813,264.0469 Q41.6063,264.0469 42.2,263.7813 Q42.7938,263.5 43.4188,262.9219 L43.4188,265.6406 Z " fill="#000000"/><text fill="#000000" font-family="sans-serif" font-size="14" lengthAdjust="spacing" textLength="59" x="58.55" y="265.432">Dialogo1</text><line style="stroke:#181818;stroke-width:0.5;" x1="8" x2="138" y1="276" y2="276"/><text fill="#000000" font-family="sans-serif" font-size="14" lengthAdjust="spacing" textLength="94" x="13" y="294.9659">String : texto1</text><text fill="#000000" font-family="sans-serif" font-size="14" lengthAdjust="spacing" textLength="66" x="13" y="314.0339">Img : Img</text><text fill="#000000" font-family="sans-serif" font-size="14" lengthAdjust="spacing" textLength="105" x="13" y="333.1018">Vector2 : center</text><text fill="#000000" font-family="sans-serif" font-size="14" lengthAdjust="spacing" textLength="120" x="13" y="352.1697">Img : Background</text><text fill="#000000" font-family="sans-serif" font-size="14" lengthAdjust="spacing" textLength="108" x="13" y="371.2376">bool : option :  0</text><line style="stroke:#181818;stroke-width:0.5;" x1="8" x2="138" y1="379.3396" y2="379.3396"/></g><!--class Dialogo2--><g id="elem_Dialogo2"><rect codeLine="12" fill="#F1F1F1" height="143.3396" id="Dialogo2" rx="2.5" ry="2.5" style="stroke:#181818;stroke-width:0.5;" width="132" x="174" y="244"/><ellipse cx="207.45" cy="260" fill="#ADD1B2" rx="11" ry="11" style="stroke:#181818;stroke-width:1.0;"/><path d="M210.4188,265.6406 Q209.8406,265.9375 209.2,266.0781 Q208.5594,266.2344 207.8563,266.2344 Q205.3563,266.2344 204.0281,264.5938 Q202.7156,262.9375 202.7156,259.8125 Q202.7156,256.6875 204.0281,255.0313 Q205.3563,253.375 207.8563,253.375 Q208.5594,253.375 209.2,253.5313 Q209.8563,253.6875 210.4188,253.9844 L210.4188,256.7031 Q209.7938,256.125 209.2,255.8594 Q208.6063,255.5781 207.9813,255.5781 Q206.6375,255.5781 205.95,256.6563 Q205.2625,257.7188 205.2625,259.8125 Q205.2625,261.9063 205.95,262.9844 Q206.6375,264.0469 207.9813,264.0469 Q208.6063,264.0469 209.2,263.7813 Q209.7938,263.5 210.4188,262.9219 L210.4188,265.6406 Z " fill="#000000"/><text fill="#000000" font-family="sans-serif" font-size="14" lengthAdjust="spacing" textLength="59" x="225.55" y="265.432">Dialogo2</text><line style="stroke:#181818;stroke-width:0.5;" x1="175" x2="305" y1="276" y2="276"/><text fill="#000000" font-family="sans-serif" font-size="14" lengthAdjust="spacing" textLength="94" x="180" y="294.9659">String : texto2</text><text fill="#000000" font-family="sans-serif" font-size="14" lengthAdjust="spacing" textLength="66" x="180" y="314.0339">Img : Img</text><text fill="#000000" font-family="sans-serif" font-size="14" lengthAdjust="spacing" textLength="105" x="180" y="333.1018">Vector2 : center</text><text fill="#000000" font-family="sans-serif" font-size="14" lengthAdjust="spacing" textLength="120" x="180" y="352.1697">Img : Background</text><text fill="#000000" font-family="sans-serif" font-size="14" lengthAdjust="spacing" textLength="108" x="180" y="371.2376">bool : option :  0</text><line style="stroke:#181818;stroke-width:0.5;" x1="175" x2="305" y1="379.3396" y2="379.3396"/></g><!--class Dialogo3--><g id="elem_Dialogo3"><rect codeLine="19" fill="#F1F1F1" height="143.3396" id="Dialogo3" rx="2.5" ry="2.5" style="stroke:#181818;stroke-width:0.5;" width="132" x="341" y="244"/><ellipse cx="374.45" cy="260" fill="#ADD1B2" rx="11" ry="11" style="stroke:#181818;stroke-width:1.0;"/><path d="M377.4188,265.6406 Q376.8406,265.9375 376.2,266.0781 Q375.5594,266.2344 374.8563,266.2344 Q372.3563,266.2344 371.0281,264.5938 Q369.7156,262.9375 369.7156,259.8125 Q369.7156,256.6875 371.0281,255.0313 Q372.3563,253.375 374.8563,253.375 Q375.5594,253.375 376.2,253.5313 Q376.8563,253.6875 377.4188,253.9844 L377.4188,256.7031 Q376.7938,256.125 376.2,255.8594 Q375.6063,255.5781 374.9813,255.5781 Q373.6375,255.5781 372.95,256.6563 Q372.2625,257.7188 372.2625,259.8125 Q372.2625,261.9063 372.95,262.9844 Q373.6375,264.0469 374.9813,264.0469 Q375.6063,264.0469 376.2,263.7813 Q376.7938,263.5 377.4188,262.9219 L377.4188,265.6406 Z " fill="#000000"/><text fill="#000000" font-family="sans-serif" font-size="14" lengthAdjust="spacing" textLength="59" x="392.55" y="265.432">Dialogo3</text><line style="stroke:#181818;stroke-width:0.5;" x1="342" x2="472" y1="276" y2="276"/><text fill="#000000" font-family="sans-serif" font-size="14" lengthAdjust="spacing" textLength="94" x="347" y="294.9659">String : texto3</text><text fill="#000000" font-family="sans-serif" font-size="14" lengthAdjust="spacing" textLength="66" x="347" y="314.0339">Img : Img</text><text fill="#000000" font-family="sans-serif" font-size="14" lengthAdjust="spacing" textLength="105" x="347" y="333.1018">Vector2 : center</text><text fill="#000000" font-family="sans-serif" font-size="14" lengthAdjust="spacing" textLength="120" x="347" y="352.1697">Img : Background</text><text fill="#000000" font-family="sans-serif" font-size="14" lengthAdjust="spacing" textLength="108" x="347" y="371.2376">bool : option :  0</text><line style="stroke:#181818;stroke-width:0.5;" x1="342" x2="472" y1="379.3396" y2="379.3396"/></g><!--class Dialogo4--><g id="elem_Dialogo4"><rect codeLine="26" fill="#F1F1F1" height="181.4754" id="Dialogo4" rx="2.5" ry="2.5" style="stroke:#181818;stroke-width:0.5;" width="199" x="508.5" y="225"/><ellipse cx="574.25" cy="241" fill="#ADD1B2" rx="11" ry="11" style="stroke:#181818;stroke-width:1.0;"/><path d="M577.2188,246.6406 Q576.6406,246.9375 576,247.0781 Q575.3594,247.2344 574.6563,247.2344 Q572.1563,247.2344 570.8281,245.5938 Q569.5156,243.9375 569.5156,240.8125 Q569.5156,237.6875 570.8281,236.0313 Q572.1563,234.375 574.6563,234.375 Q575.3594,234.375 576,234.5313 Q576.6563,234.6875 577.2188,234.9844 L577.2188,237.7031 Q576.5938,237.125 576,236.8594 Q575.4063,236.5781 574.7813,236.5781 Q573.4375,236.5781 572.75,237.6563 Q572.0625,238.7188 572.0625,240.8125 Q572.0625,242.9063 572.75,243.9844 Q573.4375,245.0469 574.7813,245.0469 Q575.4063,245.0469 576,244.7813 Q576.5938,244.5 577.2188,243.9219 L577.2188,246.6406 Z " fill="#000000"/><text fill="#000000" font-family="sans-serif" font-size="14" lengthAdjust="spacing" textLength="59" x="594.75" y="246.432">Dialogo4</text><line style="stroke:#181818;stroke-width:0.5;" x1="509.5" x2="706.5" y1="257" y2="257"/><text fill="#000000" font-family="sans-serif" font-size="14" lengthAdjust="spacing" textLength="94" x="514.5" y="275.9659">String : texto4</text><text fill="#000000" font-family="sans-serif" font-size="14" lengthAdjust="spacing" textLength="66" x="514.5" y="295.0339">Img : Img</text><text fill="#000000" font-family="sans-serif" font-size="14" lengthAdjust="spacing" textLength="105" x="514.5" y="314.1018">Vector2 : center</text><text fill="#000000" font-family="sans-serif" font-size="14" lengthAdjust="spacing" textLength="120" x="514.5" y="333.1697">Img : Background</text><text fill="#000000" font-family="sans-serif" font-size="14" lengthAdjust="spacing" textLength="104" x="514.5" y="352.2376">bool : option : 1</text><text fill="#000000" font-family="sans-serif" font-size="14" lengthAdjust="spacing" textLength="72" x="514.5" y="371.3055">Sting : Ans</text><line style="stroke:#181818;stroke-width:0.5;" x1="509.5" x2="706.5" y1="379.4075" y2="379.4075"/><text fill="#000000" font-family="sans-serif" font-size="14" lengthAdjust="spacing" textLength="187" x="514.5" y="398.3734">Pregunta_multeple_opcion()</text></g><!--reverse link Capitulo1 to Escena1--><g id="link_Capitulo1_Escena1"><path codeLine="38" d="M73,67.22 C73,85.16 73,97.89 73,115.83 " fill="none" id="Capitulo1-backto-Escena1" style="stroke:#181818;stroke-width:1.0;"/><polygon fill="#181818" points="73,55.22,69,61.22,73,67.22,77,61.22,73,55.22" style="stroke:#181818;stroke-width:1.0;"/></g><!--reverse link Escena1 to Dialogo1--><g id="link_Escena1_Dialogo1"><path codeLine="39" d="M73,176.04 C73,196.41 73,215.23 73,243.68 " fill="none" id="Escena1-backto-Dialogo1" style="stroke:#181818;stroke-width:1.0;"/><polygon fill="#181818" points="73,164.04,69,170.04,73,176.04,77,170.04,73,164.04" style="stroke:#181818;stroke-width:1.0;"/></g><!--link Dialogo1 to Dialogo2--><g id="link_Dialogo1_Dialogo2"><path codeLine="40" d="M139.21,366.83 C150.76,369.9 156.5126,371.436 168.0626,368.356 " fill="none" id="Dialogo1-to-Dialogo2" style="stroke:#181818;stroke-width:1.0;"/><polygon fill="#181818" points="173.86,366.81,164.1332,365.264,169.0288,368.0983,166.1945,372.9939,173.86,366.81" style="stroke:#181818;stroke-width:1.0;"/></g><!--link Dialogo1 to Dialogo2--><g id="link_Dialogo1_Dialogo2"><path codeLine="46" d="M139.21,315.5 C150.76,315.5 156.31,315.5 167.86,315.5 " fill="none" id="Dialogo1-to-Dialogo2-1" style="stroke:#181818;stroke-width:1.0;"/><polygon fill="#181818" points="173.86,315.5,164.86,311.5,168.86,315.5,164.86,319.5,173.86,315.5" style="stroke:#181818;stroke-width:1.0;"/></g><!--link Dialogo1 to Dialogo2--><g id="link_Dialogo1_Dialogo2"><path codeLine="50" d="M139.21,264.17 C150.76,261.1 156.5126,259.564 168.0626,262.644 " fill="none" id="Dialogo1-to-Dialogo2-2" style="stroke:#181818;stroke-width:1.0;"/><polygon fill="#181818" points="173.86,264.19,166.1945,258.0061,169.0288,262.9017,164.1332,265.736,173.86,264.19" style="stroke:#181818;stroke-width:1.0;"/></g><!--link Dialogo2 to Dialogo3--><g id="link_Dialogo2_Dialogo3"><path codeLine="41" d="M306.21,366.83 C317.76,369.9 323.5126,371.436 335.0626,368.356 " fill="none" id="Dialogo2-to-Dialogo3" style="stroke:#181818;stroke-width:1.0;"/><polygon fill="#181818" points="340.86,366.81,331.1332,365.264,336.0288,368.0983,333.1945,372.9939,340.86,366.81" style="stroke:#181818;stroke-width:1.0;"/></g><!--link Dialogo2 to Dialogo3--><g id="link_Dialogo2_Dialogo3"><path codeLine="47" d="M306.21,315.5 C317.76,315.5 323.31,315.5 334.86,315.5 " fill="none" id="Dialogo2-to-Dialogo3-1" style="stroke:#181818;stroke-width:1.0;"/><polygon fill="#181818" points="340.86,315.5,331.86,311.5,335.86,315.5,331.86,319.5,340.86,315.5" style="stroke:#181818;stroke-width:1.0;"/></g><!--link Dialogo2 to Dialogo3--><g id="link_Dialogo2_Dialogo3"><path codeLine="51" d="M306.21,264.17 C317.76,261.1 323.5126,259.564 335.0626,262.644 " fill="none" id="Dialogo2-to-Dialogo3-2" style="stroke:#181818;stroke-width:1.0;"/><polygon fill="#181818" points="340.86,264.19,333.1945,258.0061,336.0288,262.9017,331.1332,265.736,340.86,264.19" style="stroke:#181818;stroke-width:1.0;"/></g><!--link Dialogo3 to Dialogo4--><g id="link_Dialogo3_Dialogo4"><path codeLine="42" d="M473.35,362.93 C485.01,367.16 490.6602,369.2715 502.3202,369.1715 " fill="none" id="Dialogo3-to-Dialogo4" style="stroke:#181818;stroke-width:1.0;"/><polygon fill="#181818" points="508.32,369.12,499.286,365.1973,503.3202,369.1629,499.3546,373.197,508.32,369.12" style="stroke:#181818;stroke-width:1.0;"/></g><!--link Dialogo3 to Dialogo4--><g id="link_Dialogo3_Dialogo4"><path codeLine="48" d="M473.35,315.5 C485.01,315.5 490.66,315.5 502.32,315.5 " fill="none" id="Dialogo3-to-Dialogo4-1" style="stroke:#181818;stroke-width:1.0;"/><polygon fill="#181818" points="508.32,315.5,499.32,311.5,503.32,315.5,499.32,319.5,508.32,315.5" style="stroke:#181818;stroke-width:1.0;"/></g><!--link Dialogo3 to Dialogo4--><g id="link_Dialogo3_Dialogo4"><path codeLine="52" d="M473.35,268.07 C485.01,263.84 490.6602,261.7285 502.3202,261.8285 " fill="none" id="Dialogo3-to-Dialogo4-2" style="stroke:#181818;stroke-width:1.0;"/><polygon fill="#181818" points="508.32,261.88,499.3546,257.803,503.3202,261.8371,499.286,265.8027,508.32,261.88" style="stroke:#181818;stroke-width:1.0;"/></g><!--link Dialogo4 to Escena2--><g id="link_Dialogo4_Escena2"><path codeLine="43" d="M508.43,394.77 C502.61,398.68 496.78,402.45 491,406 C435.31,440.2 371.9407,469.1402 328.1007,487.8002 " fill="none" id="Dialogo4-to-Escena2" style="stroke:#181818;stroke-width:1.0;"/><polygon fill="#181818" points="322.58,490.15,332.4276,490.3057,327.1806,488.1918,329.2945,482.9448,322.58,490.15" style="stroke:#181818;stroke-width:1.0;"/><text fill="#000000" font-family="sans-serif" font-size="13" lengthAdjust="spacing" textLength="43" x="435" y="450.897">If Ans 1</text></g><!--link Dialogo4 to Escena3--><g id="link_Dialogo4_Escena3"><path codeLine="44" d="M560.26,406.13 C548.32,423.68 534.44,440.97 519,455 C501.88,470.55 484.8346,480.3745 465.2146,489.1745 " fill="none" id="Dialogo4-to-Escena3" style="stroke:#181818;stroke-width:1.0;"/><polygon fill="#181818" points="459.74,491.63,469.5888,491.5965,464.3021,489.5838,466.3149,484.2971,459.74,491.63" style="stroke:#181818;stroke-width:1.0;"/><text fill="#000000" font-family="sans-serif" font-size="13" lengthAdjust="spacing" textLength="43" x="535" y="450.897">If Ans 2</text></g><!--reverse link Escena2 to Dialogo1--><g id="link_Escena2_Dialogo1"><path codeLine="45" d="M239.9193,477.3691 C214.6793,457.2891 187.21,434.53 157,406 C150.65,400 144.17,393.63 137.78,387.16 " fill="none" id="Escena2-backto-Dialogo1" style="stroke:#181818;stroke-width:1.0;"/><polygon fill="#181818" points="249.31,484.84,247.1049,477.9743,239.9193,477.3691,242.1243,484.2348,249.31,484.84" style="stroke:#181818;stroke-width:1.0;"/></g><!--reverse link Escena3 to Dialogo1--><g id="link_Escena3_Dialogo1"><path codeLine="49" d="M361.0996,487.0891 C289.7396,459.8391 166.37,412.36 157,406 C148.89,400.5 140.98,394.08 133.46,387.26 " fill="none" id="Escena3-backto-Dialogo1" style="stroke:#181818;stroke-width:1.0;"/><polygon fill="#181818" points="372.31,491.37,368.1317,485.4927,361.0996,487.0891,365.2778,492.9664,372.31,491.37" style="stroke:#181818;stroke-width:1.0;"/></g><!--SRC=[jP9DYuCm48Rl-HKvjWj2JJprKEZNeRV2mbvBcgOYJJCIHrXOzh_l96kiWaVhGVC-CVECEDggfk5xLLVOMiYPZldOQEFKE8bHabqwLCf22VaFutHzegzSoTSSpJTIjS1Epm3e7jENqGXU4A4gQFpWbPtIZz93wsuHNW4iKQYn0aSBlcA_OwcOaeetI-MKLBvPMan9YrcbUMVu5snT4_FPcx9rg2xFrgAfhRb0hUd0OiaODSdwmU4VMTQFJVUCB0q8ImkURVeVcA0OG9cW7C0YmIB0RY33Tzz3gpoVs9QlRS7IYJaxIfevQ_u1]--></g></svg>